<svg width="16" height="88" viewBox="0 0 16 88" fill="none" xmlns="http://www.w3.org/2000/svg">
<g clip-path="url(#clip0_0_367)">
<path d="M14.1988 27.3431L10.6988 23.8431C11.5805 22.7632 12.0136 21.386 11.9087 19.9958C11.8037 18.6057 11.1688 17.3091 10.135 16.3738C9.10117 15.4386 7.74757 14.9362 6.35393 14.9707C4.96028 15.0051 3.63312 15.5736 2.64674 16.5587C1.66035 17.5438 1.09013 18.8702 1.05393 20.2638C1.01773 21.6574 1.51831 23.0117 2.45223 24.0467C3.38614 25.0817 4.68199 25.7183 6.07197 25.825C7.46195 25.9318 8.8398 25.5004 9.92076 24.6201L13.4208 28.1201C13.4718 28.1712 13.5325 28.2117 13.5992 28.2393C13.666 28.267 13.7375 28.2812 13.8098 28.2812C13.882 28.2812 13.9535 28.267 14.0203 28.2393C14.087 28.2117 14.1477 28.1712 14.1988 28.1201C14.2498 28.069 14.2904 28.0083 14.318 27.9416C14.3457 27.8749 14.3599 27.8033 14.3599 27.7311C14.3599 27.6588 14.3457 27.5873 14.318 27.5206C14.2904 27.4538 14.2498 27.3932 14.1988 27.3421V27.3431ZM2.17776 20.4181C2.17796 19.5639 2.43143 18.729 2.90613 18.0188C3.38083 17.3087 4.05543 16.7553 4.84464 16.4286C5.63385 16.1018 6.50223 16.0164 7.33997 16.1832C8.1777 16.35 8.94718 16.7614 9.55111 17.3654C10.155 17.9695 10.5663 18.7391 10.7328 19.5769C10.8994 20.4146 10.8138 21.283 10.4869 22.0721C10.16 22.8613 9.6064 23.5357 8.89616 24.0103C8.18593 24.4848 7.35093 24.7381 6.49676 24.7381C5.35144 24.737 4.25335 24.2815 3.44358 23.4715C2.63381 22.6616 2.17855 21.5634 2.17776 20.4181Z" fill="white"/>
<path d="M14.1988 71.5931L10.6988 68.0931C11.5805 67.0133 12.0136 65.636 11.9087 64.2458C11.8037 62.8557 11.1688 61.5591 10.135 60.6238C9.10117 59.6886 7.74757 59.1862 6.35393 59.2207C4.96028 59.2551 3.63312 59.8236 2.64674 60.8087C1.66035 61.7938 1.09013 63.1202 1.05393 64.5138C1.01773 65.9074 1.51831 67.2617 2.45223 68.2967C3.38614 69.3317 4.68199 69.9683 6.07197 70.075C7.46195 70.1818 8.8398 69.7504 9.92076 68.8701L13.4208 72.3701C13.5239 72.4733 13.6639 72.5312 13.8098 72.5312C13.9557 72.5312 14.0956 72.4733 14.1988 72.3701C14.3019 72.2669 14.3599 72.127 14.3599 71.9811C14.3599 71.8352 14.3019 71.6953 14.1988 71.5921V71.5931ZM2.17776 64.6681C2.17796 63.8139 2.43143 62.979 2.90613 62.2688C3.38083 61.5587 4.05543 61.0053 4.84464 60.6786C5.63385 60.3518 6.50223 60.2664 7.33997 60.4332C8.1777 60.6 8.94718 61.0114 9.55111 61.6154C10.155 62.2195 10.5663 62.9891 10.7328 63.8268C10.8994 64.6646 10.8138 65.533 10.4869 66.3221C10.16 67.1113 9.6064 67.7857 8.89616 68.2603C8.18593 68.7348 7.35093 68.9881 6.49676 68.9881C5.35144 68.987 4.25335 68.5315 3.44358 67.7216C2.63381 66.9116 2.17855 65.8134 2.17776 64.6681Z" fill="#86868B"/>
</g>
<defs>
<clipPath id="clip0_0_367">
<rect width="15" height="88" fill="white" transform="translate(0.21875)"/>
</clipPath>
</defs>
</svg>
